# xmcd CD database file
#
# Track frame offsets:
#	183
#	19860
#	55723
#	74413
#	94245
#	118653
#	142605
#
# Disc length: 1991 seconds
#
# Revision: 0
# Processed by: cddbd v1.5.1PL2 Copyright (c) Steve Scherf et al.
# Submitted via: CDex 1.51
#
DISCID=5807c507
DTITLE=Henri Texier - Amir
DYEAR=1975
DGENRE=Jazz
TTITLE0=Amir
TTITLE1=Le sage, le singe et les petits enfants
TTITLE2=Hommage
TTITLE3=Le piroguier
TTITLE4=Homme rouge
TTITLE5=Les korrigans
TTITLE6=Quand tout s'arrête
EXTD=YEAR: 1975
EXTT0=
EXTT1=
EXTT2=
EXTT3=
EXTT4=
EXTT5=
EXTT6=
PLAYORDER=
